# Wavefront OBJ file automatically generated by Tiled2Unity

# Vertices (Count = 368)
v -608 -64 0
v -624 -64 0
v -624 -48 0
v -608 -48 0
v -592 -64 0
v -592 -48 0
v -576 -64 0
v -576 -48 0
v -560 -64 0
v -560 -48 0
v -544 -64 0
v -544 -48 0
v -528 -64 0
v -528 -48 0
v -512 -64 0
v -512 -48 0
v -496 -64 0
v -496 -48 0
v -480 -64 0
v -480 -48 0
v -464 -64 0
v -464 -48 0
v -448 -64 0
v -448 -48 0
v -432 -64 0
v -432 -48 0
v -416 -64 0
v -416 -48 0
v -400 -64 0
v -400 -48 0
v -384 -64 0
v -384 -48 0
v -368 -64 0
v -368 -48 0
v -352 -64 0
v -352 -48 0
v -336 -64 0
v -336 -48 0
v -320 -64 0
v -320 -48 0
v -304 -64 0
v -304 -48 0
v -288 -64 0
v -288 -48 0
v -272 -64 0
v -272 -48 0
v -608 -80 0
v -624 -80 0
v -592 -80 0
v -576 -80 0
v -560 -80 0
v -544 -80 0
v -528 -80 0
v -512 -80 0
v -496 -80 0
v -480 -80 0
v -464 -80 0
v -448 -80 0
v -432 -80 0
v -416 -80 0
v -400 -80 0
v -384 -80 0
v -368 -80 0
v -352 -80 0
v -336 -80 0
v -320 -80 0
v -304 -80 0
v -288 -80 0
v -272 -80 0
v -608 -96 0
v -624 -96 0
v -592 -96 0
v -576 -96 0
v -560 -96 0
v -544 -96 0
v -528 -96 0
v -512 -96 0
v -496 -96 0
v -480 -96 0
v -464 -96 0
v -448 -96 0
v -432 -96 0
v -416 -96 0
v -400 -96 0
v -384 -96 0
v -368 -96 0
v -352 -96 0
v -336 -96 0
v -320 -96 0
v -304 -96 0
v -288 -96 0
v -272 -96 0
v -608 -112 0
v -624 -112 0
v -592 -112 0
v -576 -112 0
v -560 -112 0
v -544 -112 0
v -528 -112 0
v -512 -112 0
v -496 -112 0
v -480 -112 0
v -464 -112 0
v -448 -112 0
v -432 -112 0
v -416 -112 0
v -400 -112 0
v -384 -112 0
v -368 -112 0
v -352 -112 0
v -336 -112 0
v -320 -112 0
v -304 -112 0
v -288 -112 0
v -272 -112 0
v -608 -128 0
v -624 -128 0
v -592 -128 0
v -576 -128 0
v -560 -128 0
v -544 -128 0
v -528 -128 0
v -512 -128 0
v -496 -128 0
v -480 -128 0
v -464 -128 0
v -448 -128 0
v -432 -128 0
v -416 -128 0
v -400 -128 0
v -384 -128 0
v -368 -128 0
v -352 -128 0
v -336 -128 0
v -320 -128 0
v -304 -128 0
v -288 -128 0
v -272 -128 0
v -608 -144 0
v -624 -144 0
v -592 -144 0
v -576 -144 0
v -560 -144 0
v -544 -144 0
v -528 -144 0
v -512 -144 0
v -496 -144 0
v -480 -144 0
v -464 -144 0
v -448 -144 0
v -432 -144 0
v -416 -144 0
v -400 -144 0
v -384 -144 0
v -368 -144 0
v -352 -144 0
v -336 -144 0
v -320 -144 0
v -304 -144 0
v -288 -144 0
v -272 -144 0
v -608 -160 0
v -624 -160 0
v -592 -160 0
v -576 -160 0
v -560 -160 0
v -544 -160 0
v -528 -160 0
v -512 -160 0
v -496 -160 0
v -480 -160 0
v -464 -160 0
v -448 -160 0
v -432 -160 0
v -416 -160 0
v -400 -160 0
v -384 -160 0
v -368 -160 0
v -352 -160 0
v -336 -160 0
v -320 -160 0
v -304 -160 0
v -288 -160 0
v -272 -160 0
v -608 -176 0
v -624 -176 0
v -592 -176 0
v -576 -176 0
v -560 -176 0
v -544 -176 0
v -528 -176 0
v -512 -176 0
v -496 -176 0
v -480 -176 0
v -464 -176 0
v -448 -176 0
v -432 -176 0
v -416 -176 0
v -400 -176 0
v -384 -176 0
v -368 -176 0
v -352 -176 0
v -336 -176 0
v -320 -176 0
v -304 -176 0
v -288 -176 0
v -272 -176 0
v -608 -192 0
v -624 -192 0
v -592 -192 0
v -576 -192 0
v -560 -192 0
v -544 -192 0
v -528 -192 0
v -512 -192 0
v -496 -192 0
v -480 -192 0
v -464 -192 0
v -448 -192 0
v -432 -192 0
v -416 -192 0
v -400 -192 0
v -384 -192 0
v -368 -192 0
v -352 -192 0
v -336 -192 0
v -320 -192 0
v -304 -192 0
v -288 -192 0
v -272 -192 0
v -608 -208 0
v -624 -208 0
v -592 -208 0
v -576 -208 0
v -560 -208 0
v -544 -208 0
v -528 -208 0
v -512 -208 0
v -496 -208 0
v -480 -208 0
v -464 -208 0
v -448 -208 0
v -432 -208 0
v -416 -208 0
v -400 -208 0
v -384 -208 0
v -368 -208 0
v -352 -208 0
v -336 -208 0
v -320 -208 0
v -304 -208 0
v -288 -208 0
v -272 -208 0
v -608 -224 0
v -624 -224 0
v -592 -224 0
v -576 -224 0
v -560 -224 0
v -544 -224 0
v -528 -224 0
v -512 -224 0
v -496 -224 0
v -480 -224 0
v -464 -224 0
v -448 -224 0
v -432 -224 0
v -416 -224 0
v -400 -224 0
v -384 -224 0
v -368 -224 0
v -352 -224 0
v -336 -224 0
v -320 -224 0
v -304 -224 0
v -288 -224 0
v -272 -224 0
v -608 -240 0
v -624 -240 0
v -592 -240 0
v -576 -240 0
v -560 -240 0
v -544 -240 0
v -528 -240 0
v -512 -240 0
v -496 -240 0
v -480 -240 0
v -464 -240 0
v -448 -240 0
v -432 -240 0
v -416 -240 0
v -400 -240 0
v -384 -240 0
v -368 -240 0
v -352 -240 0
v -336 -240 0
v -320 -240 0
v -304 -240 0
v -288 -240 0
v -272 -240 0
v -608 -256 0
v -624 -256 0
v -592 -256 0
v -576 -256 0
v -560 -256 0
v -544 -256 0
v -528 -256 0
v -512 -256 0
v -496 -256 0
v -480 -256 0
v -464 -256 0
v -448 -256 0
v -432 -256 0
v -416 -256 0
v -400 -256 0
v -384 -256 0
v -368 -256 0
v -352 -256 0
v -336 -256 0
v -320 -256 0
v -304 -256 0
v -288 -256 0
v -272 -256 0
v -608 -272 0
v -624 -272 0
v -592 -272 0
v -576 -272 0
v -560 -272 0
v -544 -272 0
v -528 -272 0
v -512 -272 0
v -496 -272 0
v -480 -272 0
v -464 -272 0
v -448 -272 0
v -432 -272 0
v -416 -272 0
v -400 -272 0
v -384 -272 0
v -368 -272 0
v -352 -272 0
v -336 -272 0
v -320 -272 0
v -304 -272 0
v -288 -272 0
v -272 -272 0
v -608 -288 0
v -624 -288 0
v -592 -288 0
v -576 -288 0
v -560 -288 0
v -544 -288 0
v -528 -288 0
v -512 -288 0
v -496 -288 0
v -480 -288 0
v -464 -288 0
v -448 -288 0
v -432 -288 0
v -416 -288 0
v -400 -288 0
v -384 -288 0
v -368 -288 0
v -352 -288 0
v -336 -288 0
v -320 -288 0
v -304 -288 0
v -288 -288 0
v -272 -288 0

# Texture cooridinates (Count = 36)
vt 0.1581799 0.161719
vt 0.1744647 0.161719
vt 0.1744647 0.1918932
vt 0.1581799 0.1918932
vt 0.2108659 0.9050651
vt 0.2271507 0.9050651
vt 0.2271507 0.9352391
vt 0.2108659 0.9352391
vt 0.2811138 0.7757875
vt 0.2973986 0.7757875
vt 0.2973986 0.8059616
vt 0.2811138 0.8059616
vt 0.2635518 0.7757875
vt 0.2798366 0.7757875
vt 0.2798366 0.8059616
vt 0.2635518 0.8059616
vt 0.3337997 0.9697038
vt 0.3500845 0.9697038
vt 0.3500845 0.9998779
vt 0.3337997 0.9998779
vt 0.2986758 0.7757875
vt 0.3149606 0.7757875
vt 0.3149606 0.8059616
vt 0.2986758 0.8059616
vt 0.7026014 0.6465099
vt 0.7188862 0.6465099
vt 0.7188862 0.676684
vt 0.7026014 0.676684
vt 0.6850394 0.6465099
vt 0.7013242 0.6465099
vt 0.7013242 0.676684
vt 0.6850394 0.676684
vt 0.2635518 0.9697038
vt 0.2798366 0.9697038
vt 0.2798366 0.9998779
vt 0.2635518 0.9998779

# Normal
vn 0 0 -1

# Groups (Count = 2)

g mesh_0001
f 1/1/1 2/2/1 3/3/1 4/4/1
f 5/1/1 1/2/1 4/3/1 6/4/1
f 7/1/1 5/2/1 6/3/1 8/4/1
f 9/1/1 7/2/1 8/3/1 10/4/1
f 11/1/1 9/2/1 10/3/1 12/4/1
f 13/1/1 11/2/1 12/3/1 14/4/1
f 15/1/1 13/2/1 14/3/1 16/4/1
f 17/1/1 15/2/1 16/3/1 18/4/1
f 19/1/1 17/2/1 18/3/1 20/4/1
f 21/1/1 19/2/1 20/3/1 22/4/1
f 23/1/1 21/2/1 22/3/1 24/4/1
f 25/1/1 23/2/1 24/3/1 26/4/1
f 27/1/1 25/2/1 26/3/1 28/4/1
f 29/1/1 27/2/1 28/3/1 30/4/1
f 31/1/1 29/2/1 30/3/1 32/4/1
f 33/1/1 31/2/1 32/3/1 34/4/1
f 35/1/1 33/2/1 34/3/1 36/4/1
f 37/1/1 35/2/1 36/3/1 38/4/1
f 39/1/1 37/2/1 38/3/1 40/4/1
f 41/1/1 39/2/1 40/3/1 42/4/1
f 43/1/1 41/2/1 42/3/1 44/4/1
f 45/1/1 43/2/1 44/3/1 46/4/1
f 47/1/1 48/2/1 2/3/1 1/4/1
f 49/1/1 47/2/1 1/3/1 5/4/1
f 50/1/1 49/2/1 5/3/1 7/4/1
f 51/1/1 50/2/1 7/3/1 9/4/1
f 52/1/1 51/2/1 9/3/1 11/4/1
f 53/1/1 52/2/1 11/3/1 13/4/1
f 54/1/1 53/2/1 13/3/1 15/4/1
f 55/1/1 54/2/1 15/3/1 17/4/1
f 56/1/1 55/2/1 17/3/1 19/4/1
f 57/1/1 56/2/1 19/3/1 21/4/1
f 58/1/1 57/2/1 21/3/1 23/4/1
f 59/1/1 58/2/1 23/3/1 25/4/1
f 60/1/1 59/2/1 25/3/1 27/4/1
f 61/1/1 60/2/1 27/3/1 29/4/1
f 62/1/1 61/2/1 29/3/1 31/4/1
f 63/1/1 62/2/1 31/3/1 33/4/1
f 64/1/1 63/2/1 33/3/1 35/4/1
f 65/1/1 64/2/1 35/3/1 37/4/1
f 66/1/1 65/2/1 37/3/1 39/4/1
f 67/1/1 66/2/1 39/3/1 41/4/1
f 68/1/1 67/2/1 41/3/1 43/4/1
f 69/1/1 68/2/1 43/3/1 45/4/1
f 70/1/1 71/2/1 48/3/1 47/4/1
f 72/1/1 70/2/1 47/3/1 49/4/1
f 73/1/1 72/2/1 49/3/1 50/4/1
f 74/1/1 73/2/1 50/3/1 51/4/1
f 75/1/1 74/2/1 51/3/1 52/4/1
f 76/1/1 75/2/1 52/3/1 53/4/1
f 77/1/1 76/2/1 53/3/1 54/4/1
f 78/1/1 77/2/1 54/3/1 55/4/1
f 79/1/1 78/2/1 55/3/1 56/4/1
f 80/1/1 79/2/1 56/3/1 57/4/1
f 81/1/1 80/2/1 57/3/1 58/4/1
f 82/1/1 81/2/1 58/3/1 59/4/1
f 83/1/1 82/2/1 59/3/1 60/4/1
f 84/1/1 83/2/1 60/3/1 61/4/1
f 85/1/1 84/2/1 61/3/1 62/4/1
f 86/1/1 85/2/1 62/3/1 63/4/1
f 87/1/1 86/2/1 63/3/1 64/4/1
f 88/1/1 87/2/1 64/3/1 65/4/1
f 89/1/1 88/2/1 65/3/1 66/4/1
f 90/1/1 89/2/1 66/3/1 67/4/1
f 91/1/1 90/2/1 67/3/1 68/4/1
f 92/1/1 91/2/1 68/3/1 69/4/1
f 93/1/1 94/2/1 71/3/1 70/4/1
f 95/1/1 93/2/1 70/3/1 72/4/1
f 96/1/1 95/2/1 72/3/1 73/4/1
f 97/1/1 96/2/1 73/3/1 74/4/1
f 98/1/1 97/2/1 74/3/1 75/4/1
f 99/1/1 98/2/1 75/3/1 76/4/1
f 100/5/1 99/6/1 76/7/1 77/8/1
f 101/1/1 100/2/1 77/3/1 78/4/1
f 102/1/1 101/2/1 78/3/1 79/4/1
f 103/1/1 102/2/1 79/3/1 80/4/1
f 104/1/1 103/2/1 80/3/1 81/4/1
f 105/1/1 104/2/1 81/3/1 82/4/1
f 106/1/1 105/2/1 82/3/1 83/4/1
f 107/1/1 106/2/1 83/3/1 84/4/1
f 108/1/1 107/2/1 84/3/1 85/4/1
f 109/1/1 108/2/1 85/3/1 86/4/1
f 110/1/1 109/2/1 86/3/1 87/4/1
f 111/1/1 110/2/1 87/3/1 88/4/1
f 112/1/1 111/2/1 88/3/1 89/4/1
f 113/1/1 112/2/1 89/3/1 90/4/1
f 114/1/1 113/2/1 90/3/1 91/4/1
f 115/1/1 114/2/1 91/3/1 92/4/1
f 116/1/1 117/2/1 94/3/1 93/4/1
f 118/1/1 116/2/1 93/3/1 95/4/1
f 119/1/1 118/2/1 95/3/1 96/4/1
f 120/1/1 119/2/1 96/3/1 97/4/1
f 121/1/1 120/2/1 97/3/1 98/4/1
f 122/1/1 121/2/1 98/3/1 99/4/1
f 123/1/1 122/2/1 99/3/1 100/4/1
f 124/1/1 123/2/1 100/3/1 101/4/1
f 125/1/1 124/2/1 101/3/1 102/4/1
f 126/1/1 125/2/1 102/3/1 103/4/1
f 127/1/1 126/2/1 103/3/1 104/4/1
f 128/1/1 127/2/1 104/3/1 105/4/1
f 129/1/1 128/2/1 105/3/1 106/4/1
f 130/1/1 129/2/1 106/3/1 107/4/1
f 131/1/1 130/2/1 107/3/1 108/4/1
f 132/1/1 131/2/1 108/3/1 109/4/1
f 133/1/1 132/2/1 109/3/1 110/4/1
f 134/1/1 133/2/1 110/3/1 111/4/1
f 135/1/1 134/2/1 111/3/1 112/4/1
f 136/1/1 135/2/1 112/3/1 113/4/1
f 137/1/1 136/2/1 113/3/1 114/4/1
f 138/1/1 137/2/1 114/3/1 115/4/1
f 139/1/1 140/2/1 117/3/1 116/4/1
f 141/1/1 139/2/1 116/3/1 118/4/1
f 142/1/1 141/2/1 118/3/1 119/4/1
f 143/1/1 142/2/1 119/3/1 120/4/1
f 144/1/1 143/2/1 120/3/1 121/4/1
f 145/1/1 144/2/1 121/3/1 122/4/1
f 146/1/1 145/2/1 122/3/1 123/4/1
f 147/1/1 146/2/1 123/3/1 124/4/1
f 148/1/1 147/2/1 124/3/1 125/4/1
f 149/1/1 148/2/1 125/3/1 126/4/1
f 150/1/1 149/2/1 126/3/1 127/4/1
f 151/1/1 150/2/1 127/3/1 128/4/1
f 152/1/1 151/2/1 128/3/1 129/4/1
f 153/1/1 152/2/1 129/3/1 130/4/1
f 154/1/1 153/2/1 130/3/1 131/4/1
f 155/1/1 154/2/1 131/3/1 132/4/1
f 156/1/1 155/2/1 132/3/1 133/4/1
f 157/1/1 156/2/1 133/3/1 134/4/1
f 158/1/1 157/2/1 134/3/1 135/4/1
f 159/1/1 158/2/1 135/3/1 136/4/1
f 160/1/1 159/2/1 136/3/1 137/4/1
f 161/1/1 160/2/1 137/3/1 138/4/1
f 162/1/1 163/2/1 140/3/1 139/4/1
f 164/1/1 162/2/1 139/3/1 141/4/1
f 165/1/1 164/2/1 141/3/1 142/4/1
f 166/1/1 165/2/1 142/3/1 143/4/1
f 167/1/1 166/2/1 143/3/1 144/4/1
f 168/1/1 167/2/1 144/3/1 145/4/1
f 169/1/1 168/2/1 145/3/1 146/4/1
f 170/1/1 169/2/1 146/3/1 147/4/1
f 171/1/1 170/2/1 147/3/1 148/4/1
f 172/1/1 171/2/1 148/3/1 149/4/1
f 173/1/1 172/2/1 149/3/1 150/4/1
f 174/1/1 173/2/1 150/3/1 151/4/1
f 175/1/1 174/2/1 151/3/1 152/4/1
f 176/1/1 175/2/1 152/3/1 153/4/1
f 177/1/1 176/2/1 153/3/1 154/4/1
f 178/1/1 177/2/1 154/3/1 155/4/1
f 179/1/1 178/2/1 155/3/1 156/4/1
f 180/9/1 179/10/1 156/11/1 157/12/1
f 181/9/1 180/10/1 157/11/1 158/12/1
f 182/9/1 181/10/1 158/11/1 159/12/1
f 183/13/1 182/14/1 159/15/1 160/16/1
f 184/1/1 183/2/1 160/3/1 161/4/1
f 185/1/1 186/2/1 163/3/1 162/4/1
f 187/1/1 185/2/1 162/3/1 164/4/1
f 188/1/1 187/2/1 164/3/1 165/4/1
f 189/1/1 188/2/1 165/3/1 166/4/1
f 190/1/1 189/2/1 166/3/1 167/4/1
f 191/1/1 190/2/1 167/3/1 168/4/1
f 192/1/1 191/2/1 168/3/1 169/4/1
f 193/1/1 192/2/1 169/3/1 170/4/1
f 194/1/1 193/2/1 170/3/1 171/4/1
f 195/1/1 194/2/1 171/3/1 172/4/1
f 196/1/1 195/2/1 172/3/1 173/4/1
f 197/1/1 196/2/1 173/3/1 174/4/1
f 198/1/1 197/2/1 174/3/1 175/4/1
f 199/1/1 198/2/1 175/3/1 176/4/1
f 200/1/1 199/2/1 176/3/1 177/4/1
f 201/1/1 200/2/1 177/3/1 178/4/1
f 202/1/1 201/2/1 178/3/1 179/4/1
f 203/1/1 202/2/1 179/3/1 180/4/1
f 204/1/1 203/2/1 180/3/1 181/4/1
f 205/1/1 204/2/1 181/3/1 182/4/1
f 206/1/1 205/2/1 182/3/1 183/4/1
f 207/1/1 206/2/1 183/3/1 184/4/1
f 208/1/1 209/2/1 186/3/1 185/4/1
f 210/1/1 208/2/1 185/3/1 187/4/1
f 211/1/1 210/2/1 187/3/1 188/4/1
f 212/1/1 211/2/1 188/3/1 189/4/1
f 213/1/1 212/2/1 189/3/1 190/4/1
f 214/1/1 213/2/1 190/3/1 191/4/1
f 215/1/1 214/2/1 191/3/1 192/4/1
f 216/1/1 215/2/1 192/3/1 193/4/1
f 217/1/1 216/2/1 193/3/1 194/4/1
f 218/1/1 217/2/1 194/3/1 195/4/1
f 219/1/1 218/2/1 195/3/1 196/4/1
f 220/1/1 219/2/1 196/3/1 197/4/1
f 221/1/1 220/2/1 197/3/1 198/4/1
f 222/1/1 221/2/1 198/3/1 199/4/1
f 223/1/1 222/2/1 199/3/1 200/4/1
f 224/1/1 223/2/1 200/3/1 201/4/1
f 225/1/1 224/2/1 201/3/1 202/4/1
f 226/1/1 225/2/1 202/3/1 203/4/1
f 227/1/1 226/2/1 203/3/1 204/4/1
f 228/1/1 227/2/1 204/3/1 205/4/1
f 229/1/1 228/2/1 205/3/1 206/4/1
f 230/1/1 229/2/1 206/3/1 207/4/1
f 231/1/1 232/2/1 209/3/1 208/4/1
f 233/1/1 231/2/1 208/3/1 210/4/1
f 234/1/1 233/2/1 210/3/1 211/4/1
f 235/1/1 234/2/1 211/3/1 212/4/1
f 236/1/1 235/2/1 212/3/1 213/4/1
f 237/1/1 236/2/1 213/3/1 214/4/1
f 238/1/1 237/2/1 214/3/1 215/4/1
f 239/1/1 238/2/1 215/3/1 216/4/1
f 240/1/1 239/2/1 216/3/1 217/4/1
f 241/1/1 240/2/1 217/3/1 218/4/1
f 242/1/1 241/2/1 218/3/1 219/4/1
f 243/1/1 242/2/1 219/3/1 220/4/1
f 244/1/1 243/2/1 220/3/1 221/4/1
f 245/1/1 244/2/1 221/3/1 222/4/1
f 246/1/1 245/2/1 222/3/1 223/4/1
f 247/1/1 246/2/1 223/3/1 224/4/1
f 248/1/1 247/2/1 224/3/1 225/4/1
f 249/1/1 248/2/1 225/3/1 226/4/1
f 250/1/1 249/2/1 226/3/1 227/4/1
f 251/1/1 250/2/1 227/3/1 228/4/1
f 252/1/1 251/2/1 228/3/1 229/4/1
f 253/1/1 252/2/1 229/3/1 230/4/1
f 254/1/1 255/2/1 232/3/1 231/4/1
f 256/1/1 254/2/1 231/3/1 233/4/1
f 257/1/1 256/2/1 233/3/1 234/4/1
f 258/1/1 257/2/1 234/3/1 235/4/1
f 259/1/1 258/2/1 235/3/1 236/4/1
f 260/1/1 259/2/1 236/3/1 237/4/1
f 261/1/1 260/2/1 237/3/1 238/4/1
f 262/1/1 261/2/1 238/3/1 239/4/1
f 263/1/1 262/2/1 239/3/1 240/4/1
f 264/1/1 263/2/1 240/3/1 241/4/1
f 265/1/1 264/2/1 241/3/1 242/4/1
f 266/1/1 265/2/1 242/3/1 243/4/1
f 267/1/1 266/2/1 243/3/1 244/4/1
f 268/1/1 267/2/1 244/3/1 245/4/1
f 269/1/1 268/2/1 245/3/1 246/4/1
f 270/1/1 269/2/1 246/3/1 247/4/1
f 271/1/1 270/2/1 247/3/1 248/4/1
f 272/1/1 271/2/1 248/3/1 249/4/1
f 273/1/1 272/2/1 249/3/1 250/4/1
f 274/1/1 273/2/1 250/3/1 251/4/1
f 275/1/1 274/2/1 251/3/1 252/4/1
f 276/1/1 275/2/1 252/3/1 253/4/1
f 277/1/1 278/2/1 255/3/1 254/4/1
f 279/1/1 277/2/1 254/3/1 256/4/1
f 280/1/1 279/2/1 256/3/1 257/4/1
f 281/1/1 280/2/1 257/3/1 258/4/1
f 282/1/1 281/2/1 258/3/1 259/4/1
f 283/1/1 282/2/1 259/3/1 260/4/1
f 284/1/1 283/2/1 260/3/1 261/4/1
f 285/1/1 284/2/1 261/3/1 262/4/1
f 286/1/1 285/2/1 262/3/1 263/4/1
f 287/1/1 286/2/1 263/3/1 264/4/1
f 288/1/1 287/2/1 264/3/1 265/4/1
f 289/1/1 288/2/1 265/3/1 266/4/1
f 290/1/1 289/2/1 266/3/1 267/4/1
f 291/1/1 290/2/1 267/3/1 268/4/1
f 292/1/1 291/2/1 268/3/1 269/4/1
f 293/1/1 292/2/1 269/3/1 270/4/1
f 294/1/1 293/2/1 270/3/1 271/4/1
f 295/1/1 294/2/1 271/3/1 272/4/1
f 296/1/1 295/2/1 272/3/1 273/4/1
f 297/1/1 296/2/1 273/3/1 274/4/1
f 298/1/1 297/2/1 274/3/1 275/4/1
f 299/1/1 298/2/1 275/3/1 276/4/1
f 300/1/1 301/2/1 278/3/1 277/4/1
f 302/1/1 300/2/1 277/3/1 279/4/1
f 303/1/1 302/2/1 279/3/1 280/4/1
f 304/1/1 303/2/1 280/3/1 281/4/1
f 305/1/1 304/2/1 281/3/1 282/4/1
f 306/1/1 305/2/1 282/3/1 283/4/1
f 307/1/1 306/2/1 283/3/1 284/4/1
f 308/1/1 307/2/1 284/3/1 285/4/1
f 309/1/1 308/2/1 285/3/1 286/4/1
f 310/1/1 309/2/1 286/3/1 287/4/1
f 311/1/1 310/2/1 287/3/1 288/4/1
f 312/1/1 311/2/1 288/3/1 289/4/1
f 313/1/1 312/2/1 289/3/1 290/4/1
f 314/1/1 313/2/1 290/3/1 291/4/1
f 315/1/1 314/2/1 291/3/1 292/4/1
f 316/1/1 315/2/1 292/3/1 293/4/1
f 317/1/1 316/2/1 293/3/1 294/4/1
f 318/1/1 317/2/1 294/3/1 295/4/1
f 319/1/1 318/2/1 295/3/1 296/4/1
f 320/1/1 319/2/1 296/3/1 297/4/1
f 321/1/1 320/2/1 297/3/1 298/4/1
f 322/1/1 321/2/1 298/3/1 299/4/1
f 323/1/1 324/2/1 301/3/1 300/4/1
f 325/1/1 323/2/1 300/3/1 302/4/1
f 326/1/1 325/2/1 302/3/1 303/4/1
f 327/1/1 326/2/1 303/3/1 304/4/1
f 328/1/1 327/2/1 304/3/1 305/4/1
f 329/1/1 328/2/1 305/3/1 306/4/1
f 330/1/1 329/2/1 306/3/1 307/4/1
f 331/1/1 330/2/1 307/3/1 308/4/1
f 332/1/1 331/2/1 308/3/1 309/4/1
f 333/1/1 332/2/1 309/3/1 310/4/1
f 334/1/1 333/2/1 310/3/1 311/4/1
f 335/1/1 334/2/1 311/3/1 312/4/1
f 336/1/1 335/2/1 312/3/1 313/4/1
f 337/1/1 336/2/1 313/3/1 314/4/1
f 338/1/1 337/2/1 314/3/1 315/4/1
f 339/1/1 338/2/1 315/3/1 316/4/1
f 340/1/1 339/2/1 316/3/1 317/4/1
f 341/1/1 340/2/1 317/3/1 318/4/1
f 342/1/1 341/2/1 318/3/1 319/4/1
f 343/1/1 342/2/1 319/3/1 320/4/1
f 344/1/1 343/2/1 320/3/1 321/4/1
f 345/1/1 344/2/1 321/3/1 322/4/1
f 346/1/1 347/2/1 324/3/1 323/4/1
f 348/1/1 346/2/1 323/3/1 325/4/1
f 349/1/1 348/2/1 325/3/1 326/4/1
f 350/1/1 349/2/1 326/3/1 327/4/1
f 351/1/1 350/2/1 327/3/1 328/4/1
f 352/1/1 351/2/1 328/3/1 329/4/1
f 353/1/1 352/2/1 329/3/1 330/4/1
f 354/1/1 353/2/1 330/3/1 331/4/1
f 355/1/1 354/2/1 331/3/1 332/4/1
f 356/1/1 355/2/1 332/3/1 333/4/1
f 357/1/1 356/2/1 333/3/1 334/4/1
f 358/1/1 357/2/1 334/3/1 335/4/1
f 359/1/1 358/2/1 335/3/1 336/4/1
f 360/1/1 359/2/1 336/3/1 337/4/1
f 361/1/1 360/2/1 337/3/1 338/4/1
f 362/1/1 361/2/1 338/3/1 339/4/1
f 363/1/1 362/2/1 339/3/1 340/4/1
f 364/1/1 363/2/1 340/3/1 341/4/1
f 365/1/1 364/2/1 341/3/1 342/4/1
f 366/1/1 365/2/1 342/3/1 343/4/1
f 367/1/1 366/2/1 343/3/1 344/4/1
f 368/1/1 367/2/1 344/3/1 345/4/1

g mesh_0002
f 99/5/1 98/6/1 75/7/1 76/8/1
f 100/1/1 99/2/1 76/3/1 77/4/1
f 101/5/1 100/6/1 77/7/1 78/8/1
f 105/17/1 104/18/1 81/19/1 82/20/1
f 122/5/1 121/6/1 98/7/1 99/8/1
f 124/5/1 123/6/1 100/7/1 101/8/1
f 155/21/1 154/22/1 131/23/1 132/24/1
f 156/9/1 155/10/1 132/11/1 133/12/1
f 157/9/1 156/10/1 133/11/1 134/12/1
f 158/9/1 157/10/1 134/11/1 135/12/1
f 159/9/1 158/10/1 135/11/1 136/12/1
f 160/13/1 159/14/1 136/15/1 137/16/1
f 177/1/1 176/2/1 153/3/1 154/4/1
f 178/1/1 177/2/1 154/3/1 155/4/1
f 179/1/1 178/2/1 155/3/1 156/4/1
f 180/1/1 179/2/1 156/3/1 157/4/1
f 181/1/1 180/2/1 157/3/1 158/4/1
f 182/1/1 181/2/1 158/3/1 159/4/1
f 183/1/1 182/2/1 159/3/1 160/4/1
f 219/25/1 218/26/1 195/27/1 196/28/1
f 220/29/1 219/30/1 196/31/1 197/32/1
f 224/21/1 223/22/1 200/23/1 201/24/1
f 225/9/1 224/10/1 201/11/1 202/12/1
f 226/9/1 225/10/1 202/11/1 203/12/1
f 227/9/1 226/10/1 203/11/1 204/12/1
f 228/9/1 227/10/1 204/11/1 205/12/1
f 229/13/1 228/14/1 205/15/1 206/16/1
f 283/33/1 282/34/1 259/35/1 260/36/1
f 284/33/1 283/34/1 260/35/1 261/36/1
f 285/33/1 284/34/1 261/35/1 262/36/1
f 293/21/1 292/22/1 269/23/1 270/24/1
f 294/9/1 293/10/1 270/11/1 271/12/1
f 295/9/1 294/10/1 271/11/1 272/12/1
f 296/9/1 295/10/1 272/11/1 273/12/1
f 297/9/1 296/10/1 273/11/1 274/12/1
f 298/13/1 297/14/1 274/15/1 275/16/1

